<svg width="52" height="52" viewBox="0 0 52 52" fill="none" xmlns="http://www.w3.org/2000/svg">
<g clip-path="url(#clip0_63_13467)">
<path d="M24.376 26.7578H26.1163C26.8278 26.7578 27.4053 26.1803 27.4053 25.4688C27.4053 24.7572 26.8278 24.1797 26.1163 24.1797H24.376C22.6659 24.2476 22.6667 26.6908 24.376 26.7578Z" fill="#0082FF"/>
<path d="M24.376 22.2461H28.6944C29.406 22.2461 29.9835 21.6686 29.9835 20.957C29.9835 20.2455 29.406 19.668 28.6944 19.668H24.376C22.6659 19.7359 22.6667 22.1791 24.376 22.2461Z" fill="#0082FF"/>
<path d="M24.376 17.7344H28.6944C30.4037 17.6673 30.4046 15.2241 28.6944 15.1562H24.376C22.6667 15.2241 22.6659 17.6665 24.376 17.7344Z" fill="#0082FF"/>
<path d="M39.2147 12.8856C37.7108 12.07 36.4612 14.1686 37.8964 15.1011C39.4536 16.0275 40.4221 17.7265 40.4221 19.5363V30.1066C40.4221 32.9494 38.1087 35.2629 35.2658 35.2629H17.7329C14.8909 35.2629 12.5783 32.9503 12.5783 30.1083V19.5363C12.5783 17.7273 13.546 16.0283 15.1032 15.1011C15.7151 14.7375 15.9162 13.9461 15.5518 13.3342C15.1883 12.7223 14.3968 12.5212 13.7849 12.8856C11.468 14.2434 9.97959 16.8456 10.0002 19.5363V30.1083C10.0002 34.3717 13.4695 37.841 17.7329 37.841H35.2658C39.5301 37.841 43.0002 34.3717 43.0002 30.1066V19.5363C43.0208 16.8456 41.5324 14.2434 39.2155 12.8856H39.2147Z" fill="#111111"/>
<path d="M23.0859 31.9124H29.9824C32.8252 31.9124 35.1387 29.5989 35.1387 26.7561V15.1563C35.1387 12.3126 32.8252 10 29.9824 10H23.0859C20.2431 10 17.9297 12.3126 17.9297 15.1563V26.7561C17.9297 29.5989 20.2431 31.9124 23.0859 31.9124ZM20.5078 15.1563C20.5078 13.7348 21.6645 12.5781 23.0859 12.5781H29.9824C31.4038 12.5781 32.5605 13.7348 32.5605 15.1563V26.7561C32.5605 28.1775 31.4038 29.3342 29.9824 29.3342H23.0859C21.6645 29.3342 20.5078 28.1775 20.5078 26.7561V15.1563Z" fill="#111111"/>
<path d="M32.6885 40.4219H20.3135C18.6042 40.4898 18.6034 42.9321 20.3135 43H32.6885C34.3978 42.933 34.3987 40.4898 32.6885 40.4219Z" fill="#111111"/>
</g>
<defs>
<clipPath id="clip0_63_13467">
<rect width="33" height="32.9983" fill="white" transform="translate(10 10)"/>
</clipPath>
</defs>
</svg>
